<svg xmlns="http://www.w3.org/2000/svg" viewBox="0 0 539.15 469.44"><defs><style>.cls-1,.cls-3{fill:#80ffdb;}.cls-2{font-size:78.35px;fill:#72efdd;font-family:MyriadHebrew-Regular, Myriad Hebrew;}.cls-3{opacity:0;}</style></defs><g id="Layer_2" data-name="Layer 2"><g id="svg2"><path id="path2954" class="cls-1" d="M281.83,211.48c2,0,2.24-.14,5.92,4.76,2.09,2.78,6.54,8.61,9.06,12.31a.82.82,0,0,0,.67.36l36.65-.14c4.62-.22,5.13-.77,7-2.18,3.5-2.59,6.76-7,14.41-19.33,2.32-3.74,5.27-8.45,6.56-10.48,1.75-2.89,1.38-3.63,4.9-4.51a.84.84,0,0,1,1,1.14c-3.66,9.28-8.15,19.72-11.21,24.5-6.33,9.91-16.43,20.53-36.42,27.15,14-2.49,19.36-6.68,27.83-13.83a.84.84,0,0,1,1.26,1.05c-5,9.92-11.16,19.25-17.36,28.46a.83.83,0,0,0,1.29,1.05c17.35-20,33.25-42,42.31-67.21,1.13-3.56,2.36-8,3.06-10.8a.83.83,0,0,0-1.39-.8,21.72,21.72,0,0,1-16.48,7.42c-14.78.35-26.22-4.23-36.91-12.44a.81.81,0,0,0-1,0c-1,.73-2,1.49-2.07,3s1.73,3.46,5.15,5.45c5.63,3.28,20.05,7.14,26.64,7.14.83,0,1.51.08,1.51.19s-3.87,5.17-8.6,11.26c-7.26,9.33-8.79,11.12-9.84,11.49-2.42.86-16,.29-23.26-1-3.47-.61-5-1.27-6.89-2.94l-.08-.07c-3.24-3.43-5.75-7.62-9-10.95a.83.83,0,0,0-.87-.19,36.26,36.26,0,0,1-13.86,2.93A37.79,37.79,0,0,1,268,201.36a.81.81,0,0,0-.87.19c-3.26,3.33-5.76,7.52-9,10.95l-.08.07c-1.85,1.67-3.41,2.33-6.88,2.94-7.29,1.26-20.85,1.83-23.27,1-1-.37-2.58-2.16-9.84-11.49-4.73-6.09-8.6-11.16-8.6-11.26s.68-.19,1.52-.19c6.58,0,21-3.86,26.63-7.14,3.42-2,5.17-3.8,5.15-5.45s-1.06-2.27-2.07-3a.79.79,0,0,0-1,0c-10.7,8.21-22.14,12.79-36.92,12.44A21.74,21.74,0,0,1,186.28,183a.83.83,0,0,0-1.39.8c.7,2.85,1.93,7.24,3.06,10.8,9.06,25.24,25,47.23,42.31,67.21a.83.83,0,0,0,1.29-1.05c-6.2-9.21-12.34-18.54-17.35-28.46a.84.84,0,0,1,1.26-1.05c8.46,7.14,13.86,11.34,27.83,13.83-20-6.62-30.09-17.24-36.43-27.15-3.06-4.78-7.54-15.22-11.21-24.5a.84.84,0,0,1,1-1.14c3.52.88,3.15,1.62,4.9,4.51,1.29,2,4.25,6.74,6.56,10.48,7.65,12.37,10.91,16.74,14.41,19.33,1.91,1.41,2.42,2,7,2.18l36.65.14a.8.8,0,0,0,.67-.36c2.52-3.7,7-9.53,9.06-12.31,3.69-4.9,3.9-4.76,5.93-4.76Zm-61.92-146c-12.52.13-23.92,7.19-30,25.89a.83.83,0,0,0,1.11,1c10.23-4.84,23-4.52,34-.63,14.58,5.17,27.18,16.61,38.16,31.61a.83.83,0,0,0,1.47-.68,94.47,94.47,0,0,0-6.28-19.45.84.84,0,0,1,.91-1.19c2,.42,4.15.8,5.24-.59,1.52-1.93.33-3.89-1.17-5.5A70,70,0,0,0,230.9,75.88a.85.85,0,0,1,.3-1.66,95.33,95.33,0,0,1,19.34,4.24.85.85,0,0,0,.73-1.5c-9.62-6.83-20.88-11.56-31.36-11.46Zm123.83,0C333.26,65.4,322,70.13,312.38,77a.85.85,0,0,0,.73,1.5,95.27,95.27,0,0,1,19.35-4.24.85.85,0,0,1,.29,1.66A70,70,0,0,0,300.34,96c-1.5,1.61-2.69,3.57-1.17,5.5,1.09,1.39,3.27,1,5.24.59a.84.84,0,0,1,.91,1.19,93.91,93.91,0,0,0-6.27,19.45.82.82,0,0,0,1.46.68c11-15,23.58-26.44,38.16-31.61,11-3.89,23.73-4.21,34,.63a.83.83,0,0,0,1.11-1c-6.08-18.7-17.47-25.76-30-25.89ZM227.4,113.74c-5.79.06-10.65,1-14.31,2.59-7.24,3.25-11.68,15.71-18.17,16.36a6.35,6.35,0,0,1-4.85-1.71.83.83,0,0,0-1.18,1.15c.37.52.75,1,1.14,1.48a.86.86,0,0,1-.17,1.27l-1.13.74a.85.85,0,0,0,.73,1.51l.13,0a.84.84,0,0,1,.69,1.53c-4.15,2.53-8.68,5.85-11.18,10.54,5.75-5.84,12.71-11.14,21.09-10.67,2.42.13,3.14.34,6.05,1.76l0,0c7.14,4.21,14.94,4.45,22.84,4.38a.83.83,0,0,0,.81-.85v-3.49a.82.82,0,0,0-.8-.84,88.47,88.47,0,0,1-16.53-1.92c-2.39-.63-6.52-2.65-7.35-3.6-.57-.65-.56-.75.17-2.53a22.91,22.91,0,0,1,8.78-10.74c4.47-2.89,9.74-3.53,14.9-3.45l.83-.84v-1.78l-.81-.86H227.4Zm107.7,0h-.57l-.81.86v1.78l.84.85c5.16-.09,10.43.56,14.89,3.44a23,23,0,0,1,8.79,10.75c.73,1.77.73,1.87.17,2.52-.83,1-5,3-7.36,3.6a88.36,88.36,0,0,1-16.52,1.92.83.83,0,0,0-.81.84v3.49a.84.84,0,0,0,.82.85c7.9.07,15.69-.17,22.84-4.38l0,0c2.91-1.42,3.64-1.63,6.05-1.76,8.38-.47,15.34,4.83,21.1,10.67-2.51-4.69-7-8-11.19-10.54a.85.85,0,0,1,.7-1.53l.12,0a.84.84,0,0,0,.73-1.51l-1.12-.74a.86.86,0,0,1-.18-1.27c.4-.47.78-1,1.15-1.48a.83.83,0,0,0-1.19-1.15,6.34,6.34,0,0,1-4.84,1.71c-6.49-.65-10.93-13.11-18.17-16.36-3.67-1.64-8.52-2.53-14.32-2.59Zm-101.42.52v2.66a.83.83,0,0,0,.67.83c8.59,1.58,18.15,6.57,20.4,11.23-6.82-4.89-14.71-8.84-23.13-8.72A38.7,38.7,0,0,0,214,124.84c-2.69,1.54-6.5,5-6.56,6-.24,4.2,18,6.5,24.55,6.21,5.91-.26,11.85-.54,17.38-2.22a.85.85,0,0,1,.61,1.57c-4.33,2.21-10.27,2.73-15.49,2.92a.83.83,0,0,0-.79.85v3.41a.84.84,0,0,0,.88.86c11.52-.9,25.18-6.26,25.13-13.15-.08-10.82-17.74-15.64-26-17.08Zm96.31,0c-8.28,1.44-25.94,6.26-26,17.08-.05,6.89,13.61,12.25,25.13,13.15a.84.84,0,0,0,.88-.86v-3.41a.84.84,0,0,0-.79-.85c-5.23-.18-11.17-.71-15.5-2.92a.85.85,0,0,1,.61-1.57c5.54,1.68,11.48,2,17.38,2.22,6.55.29,24.8-2,24.55-6.21-.06-1.06-3.86-4.51-6.56-6a38.52,38.52,0,0,0-17.63-4.57c-8.42-.13-16.32,3.82-23.13,8.71,2.24-4.66,11.81-9.65,20.39-11.23a.84.84,0,0,0,.68-.83v-2.66Zm-61.19,5.6c0,21-3.21,35.7-16.14,51.84-2.87,3.58-6.27,7.47-6.42,12.35a11.53,11.53,0,0,0,.26,2.88.83.83,0,0,0,1.63-.25,15.57,15.57,0,0,1,.07-2c.31-3,2.35-5.09,8.29-11.12,5.72-5.81,6.8-7.19,7.83-6,.46.51.39,3.46-.25,8.8-.92,7.7-.6,13,1,16.22s5.94,6.06,11.79,7.48a32,32,0,0,0,10,0c5.86-1.42,10.16-4.14,11.8-7.48s1.91-8.52,1-16.22c-.64-5.34-.71-8.29-.25-8.8,1-1.15,2.11.23,7.83,6,5.95,6,8,8.12,8.29,11.12a14,14,0,0,1,.08,2,.82.82,0,0,0,1.62.25,12,12,0,0,0,.27-2.88c-.15-4.88-3.55-8.77-6.42-12.35-10.74-13.39-14.75-25.78-15.82-41.63a.83.83,0,0,0-1.65,0c-.74,9.76-.49,21.28-.19,31.59A139.13,139.13,0,0,0,295.22,182c.87,5.16.75,9.08-1,10.55-3.32,2.8-8,3.8-12.38,3.81s-9.05-1-12.38-3.81c-1.75-1.48-1.88-5.39-1-10.55a139.13,139.13,0,0,0,1.87-20.31c.41-14.22.73-30.73-1.51-41.78Zm-10.88,73.81a5,5,0,0,0-1.33.22c-.76.24-.83,1.47.12,2.76s2.25,2,4.75,2.6,3.81.65,4-.16c.6-3.05-4.15-5.53-7.51-5.42Zm47.82,0c-3.36-.11-8.1,2.37-7.5,5.42.16.81,1.51.79,4,.16s3.67-1.27,4.75-2.6.89-2.52.13-2.76a5.15,5.15,0,0,0-1.34-.22ZM255.3,230.32c-.55.51-1.39,1-1,1.69s5.08,1.92,11.58,2.24a272.58,272.58,0,0,0,31.83,0c6.5-.44,11.11-1.48,11.58-2.24s-.41-1.18-1-1.69Zm15.1,20.78a.85.85,0,0,0-.62,1.4c3.32,4,5.2,6.43,5.18,9.79,0,7-3,7.84-2.68,19,.24,8.95,1.65,14.79,2.46,20.47,1.92,13.53,4.17,13.74,7.09,13.74s5.17-.21,7.1-13.74c.81-5.68,2.21-11.52,2.46-20.47.3-11.16-2.64-12-2.68-19,0-3.36,1.85-5.77,5.18-9.79a.85.85,0,0,0-.62-1.4Z"/><text class="cls-2" transform="translate(88.81 408.38) scale(0.85 1)">The Mask Bet</text><rect class="cls-3" width="539.15" height="469.44"/></g></g></svg>