<svg xmlns="http://www.w3.org/2000/svg" viewBox="0 0 4362 5224"><defs><style>.cls-1{opacity:0.67;}.cls-2,.cls-3,.cls-4{fill:#a8dadc;}.cls-3{opacity:0.8;}.cls-3,.cls-4{isolation:isolate;}.cls-4{opacity:0.5;}.cls-5{fill:#457b9d;}.cls-6{fill:#dfb4aa;}.cls-7{fill:#e63946;}.cls-8{fill:#2a9d8f;}.cls-9{fill:#1d3557;}.cls-10{fill:#f1faee;}.cls-11{fill:#073b4c;}</style></defs><g id="Layer_2" data-name="Layer 2"><g id="Layer_1-2" data-name="Layer 1"><g id="layer1" class="cls-1"><g id="g6560"><g id="g3095"><g id="g4361"><path id="path4339" class="cls-2" d="M1340.18,4712.77s279.77,95.66,421.41,114.85c140.08,19,280.94,0,421.4,0s281.33,19,421.41,0c141.64-19.19,421.41-114.85,421.41-114.85,42,0,75.81,61.6,75.81,138.12v122.78c0,76.51-33.81,138.12-75.81,138.12,0,0-573.47,61.64-861.37,61.18-275.58-.44-824.29-61.18-824.29-61.18-41.83-5.71-75.81-61.61-75.81-138.12V4850.89c0-76.52,33.81-138.12,75.81-138.12Z"/><path id="path4359" class="cls-2" d="M3095.61,4754.82c0,62.33-406.88,112.85-908.77,112.85s-908.76-50.52-908.76-112.85S1685,4642,2186.84,4642,3095.61,4692.49,3095.61,4754.82Z"/></g><path id="path4186" class="cls-2" d="M1362.32,4680s434.36-300.74,532.46-521.78c76.5-172.37,13.31-558.61,13.31-558.61h519.15s-94.44,388.07-13.31,558.61c109.27,229.68,612.33,497.23,612.33,497.23s-553.4,69.58-832,73.66c-277.85,4.08-832-49.11-832-49.11Z"/><path id="path3847" class="cls-2" d="M927.48,1312.85s-4.52,3.68-13.67,11.09h0c-9.11,6.52-64.52-40-158.24-131-33.16-36.4-70.59-81.35-105.39-139.1-25.09-39.72-50.39-90.65-54.9-157.3-1.38-68.6,19.76-136.41,49.54-195.69,29.46-61.92,67.65-123.19,111-183.18q50.35-69.94,111-140,18-20.75,37.11-41.68h0q5.24-5.7,10.72-11.54h0c-.31.58-.62,1.14-.9,1.69-.1.2-.21.39-.31.58h0L935.86,289c10.28-23.89,18.62-44.08,14.85-57.25-.94-5.59-2.12-10.27-4-11.45-.69-2.65-7.88-6.51-17.25-12-44.06-26.4-118.12-21.43-205.14-21-92,5-186,31.3-259.53,82.89C396.33,316.11,340.31,385,295,463.31c-38.88,67.36-68.47,141-91.08,219-31.6,109.11-48.23,219.78-60,326.31-9.66,70.84,4,141.79,27.92,210.54s58.35,135.32,94.4,198.12c46.4,78,98.07,151,147.69,222.47s97.27,141.27,138.83,211.12c62.32,105.67,128.85,200.23,190.86,288.24C826.71,2257,903,2360.89,972,2454.49c69.78,94.62,132.31,178.55,189.61,254.65q29.89,39.72,58,76.65,3,3.95,6,7.86,6.21,8.13,9.75,13.07,2.65,3.71,3.85,5.68a14.65,14.65,0,0,1,.84,1.58c.35.81.1,1-.65.5a13.08,13.08,0,0,1-1.47-1.12c-1.21-1-2.91-2.61-5.09-4.75-4.29-4.23-10.42-10.62-18.28-19-15.34-16.45-37.25-40.65-64.84-71.67-51.79-58.24-123.65-140.51-209.21-241.07-74.77-87.89-160.15-189.63-250.34-302.5-69.83-87.39-143.44-180.93-211.81-283.13-93-139.06-211.32-272.2-311.79-421.12C72.11,1330.83-5.26,1169.63.28,996.83c4.28-120,15.59-240.23,40.22-355.32,18.8-87.89,47.69-174.85,89.42-258.44,48.76-97.73,120.83-189.74,218.2-260C456.8,47.08,587.81,7.9,716.24,3c90.82-7.79,202.24-2.8,309,48,33.12,16.31,64,42.71,88.16,78.63,19.11,31.64,28.31,64.57,28.66,96.26-1.41,59.12-19.3,108.18-42.88,146Q1079.3,400,1059.8,427.5l-2.38,2.7q-3.35,3.76-6.71,7.59h0q-4.92,4.68-9.94,9.59-18.4,17.94-36.29,36.29-60.08,61.5-111.88,122.56c-44.15,52.4-83,103-113.63,153.3-29,50.55-52.78,94.91-55.91,136.28-5.66,35.15,8.77,75.55,23.42,114.56h0c20.65,52.73,46.84,99.11,70.26,139.23,69.48,103,105.18,166.88,97.32,174.15,8.9-7.21,13.42-10.89,13.42-10.89Z"/><path id="path3871" class="cls-2" d="M3374.44,1312.85l-13.67-11.09h0c-8.21-7.54,30-66.62,105.08-165.86,24.84-37.81,52.7-81.53,75.33-132,15.89-37.48,32-75.27,28.16-108.18-.65-39.15-22-83.6-49.1-135-28-50.22-64.75-101.16-107.25-154Q3333.07,519,3245.58,421.73q-18-26.26-36.44-53.11a282,282,0,0,1-41.43-142.56c.39-30.58,9.23-62.34,27.63-92.81,23.13-34.53,53-60.1,85.16-76.11,103.38-49.84,213.59-55.8,305-49.55,126.42,3.2,257.63,38.58,370.49,112.74,99.13,67.21,176.59,157,232,255,46.39,81.87,81.79,168.42,108.27,257.49,37,124.5,54.72,245.84,64.22,359.2,7.19,103.22-11.11,198-41.39,283.68s-72.6,162.1-117.61,229.46c-54.54,84.09-111.55,158.12-164.79,227.21s-102.81,133.19-145.52,195.55c-74.32,108.72-150.67,201.12-221.58,284.61-95.46,112.51-183.94,209.21-264.82,295.16-81.79,86.92-156.09,162.8-224.27,231.19q-35.58,35.68-69.06,68.79l-7.14,7c-4.93,4.87-8.9,8.69-12,11.5q-3.42,3.15-5.29,4.63a15.76,15.76,0,0,1-1.52,1.08c-.8.46-1,.29-.66-.49a13,13,0,0,1,.9-1.55c.85-1.31,2.21-3.17,4.06-5.57,3.65-4.74,9.21-11.59,16.55-20.43h0c14.32-17.26,35.42-42.12,62.26-73.77,50.37-59.4,121-142.68,204.66-244.76,73.08-89.21,156.25-192.71,242.91-308,67.09-89.26,137.27-185.23,200.63-289.72,86.82-143.11,198-283.07,285-435.21,40.45-71.19,75.83-146.6,97.65-222.64s30-152.69,17.33-225.91c-18.56-115.87-45-228.74-84-330.19-29.77-77.46-65.52-150.92-109.94-218.09-50.89-76.66-111.68-144.08-183.6-188.07C3763.37,219,3669.4,195.3,3577.35,192c-86.39,1.15-159.47-3.38-201.16,22.57-8.36,5.15-14.55,8.17-14.24,9.48-1.13,0-2,3.48-2.95,8-4,11.25,3.78,30.28,13.39,53.78q11.81,19.77,23.45,39.45,79.32,97.64,150.82,189.11c42.51,61.38,79.7,124.3,107.73,187.65,27.69,59.73,46.6,127.65,42.73,194.45-6.33,64.09-33.19,112.48-59.64,150.92h0c-36.54,55-75.65,97.45-110.46,131.84-97.81,85.56-157.24,129-166,122.72h0l13.42,10.89Z"/><path id="path3007" class="cls-2" d="M1826.23,564.75V707.87c-209.32,58.35-386.63,173.13-506.5,323,226.79-33.37,500.43-52.67,796.37-52.67,319.6,0,613.56,23.25,850.22,61.62-116.69-149.94-290.94-265.95-496.77-327V564.75Z"/><path id="path3013" class="cls-2" d="M2136,221.8c-140.38,0-263.91,114.48-336.1,287.85,97.66,4.12,205.1,22.16,326.38,22.16,131,0,251.47-45.31,348.46-15.12C2402.92,339.59,2278.12,221.8,2136,221.8Z"/><rect id="rect3011" class="cls-2" x="1764.92" y="506.64" width="761.16" height="64.88"/><path id="path2987" class="cls-2" d="M798.51,1212.67s890.47,63.91,1336.62,63.61c433.6-.29,1299-63.61,1299-63.61s-40.11,692.41-94.48,1085.16C3254.51,2912.67,2323.38,3574,2323.38,3574H2022.17S1216.74,3063.27,996.56,2393.31c-125.26-381.11-198-1180.67-198-1180.67Z"/><path id="path3879" class="cls-2" d="M798.51,1212.67s890.47,63.91,1336.62,63.61c433.6-.29,1299-63.61,1299-63.61s-40.11,692.41-94.48,1085.16C3254.51,2912.67,2323.38,3574,2323.38,3574H2022.17S1216.74,3063.27,996.56,2393.31c-125.26-381.11-198-1180.67-198-1180.67Z"/><rect id="rect3875" class="cls-2" x="1849.61" y="3526.75" width="638.77" height="108.28"/><path id="path3895" class="cls-3" d="M3158.16,1231.75c-123.84,8-262.14,16.55-422.43,24.85-2.56,172.86-9.46,582.84-17.24,850.76-17.38,598.4-413.8,1232.42-413.8,1232.42s646.32-393.51,809.29-972c91.44-324.63,59-924.52,44.18-1136Z"/><path id="path2989" class="cls-2" d="M2129.13,978.59C1509,978.59,983.69,1066,800.86,1187.3l32,207.72c4,2.19,7.48,4.81,11.74,7-12.55-112-19.2-189.83-19.2-189.83s881.26,63.91,1322.92,63.61c429.29-.29,1285.59-63.61,1285.59-63.61s-73.75,80.14-80.71,184.86c9.74-5.13,18.19-10.65,26.68-15.9l54-208.72C3231.7,1058.8,2723.79,978.58,2129.12,978.58Z"/><path id="path3952" class="cls-3" d="M2586.88,856c0,47.42-84.28,85.85-188.25,85.85S2210.38,903.39,2210.38,856s84.28-85.84,188.25-85.84S2586.88,808.57,2586.88,856Z"/><rect id="rect4086" class="cls-2" x="1764.92" y="506.64" width="761.16" height="64.88"/><path id="path4096" class="cls-2" d="M2136,221.8c-140.38,0-263.91,114.48-336.1,287.85,97.66,4.12,205.1,22.16,326.38,22.16,131,0,251.47-45.31,348.46-15.12C2402.92,339.59,2278.12,221.8,2136,221.8Z"/><path id="path4126" class="cls-2" d="M755.06,64.82C364.54,47.75,117.7,413,92.32,738.69,79,844.11,63.82,954,71.85,1061.69,97.12,724,182,281.63,570.79,149.29,712.09,118.88,935.84,76,1018,213.89c-7.1,197.59-237.28,309.26-300.66,493-52.16,113.62-37.7,96.63,15.09,0,86.81-187.54,360.8-296.56,334.06-518.8C1026.87,80.41,865.72,61.3,755.07,64.82Z"/><path id="path4162" class="cls-2" d="M3551,64.82C3941.52,47.75,4188.35,413,4213.73,738.69c13.36,105.42,28.5,215.26,20.48,323-25.28-337.7-110.14-780.06-498.95-912.4-141.29-30.41-365-73.32-447.21,64.6,7.1,197.59,237.27,309.26,300.65,493,52.17,113.62,37.7,96.63-15.08,0-86.81-187.54-360.81-296.56-334.06-518.8C3279.19,80.41,3440.34,61.3,3551,64.82Z"/><path id="path4166" class="cls-2" d="M2129.13,978.59C1509,978.59,983.69,1066,800.86,1187.3l32,207.72c4,2.19,7.48,4.81,11.74,7-12.55-112-19.2-189.83-19.2-189.83s881.26,63.91,1322.92,63.61c429.29-.29,1285.59-63.61,1285.59-63.61s-73.75,80.14-80.71,184.86c9.74-5.13,18.19-10.65,26.68-15.9l54-208.72C3231.7,1058.8,2723.79,978.58,2129.12,978.58Z"/><path id="path4176" class="cls-2" d="M1826.23,564.75V707.87c-209.32,58.35-386.63,173.13-506.5,323,226.79-33.37,500.43-52.67,796.37-52.67,319.6,0,613.56,23.25,850.22,61.62-116.69-149.94-290.94-265.95-496.77-327V564.75Z"/><path id="rect4200" class="cls-2" d="M1418.53,4606.19s255.4,37,384.7,44.41c127.88,7.33,256.47,0,384.7,0s256.82,7.33,384.69,0c129.31-7.42,384.7-44.41,384.7-44.41,38.35,0,69.21,23.82,69.21,53.4v47.46c0,29.59-30.87,53.4-69.21,53.4,0,0-511.91,44.4-769.43,44.4s-769.43-44.4-769.43-44.4c-38.19-2.2-69.21-23.81-69.21-53.4v-47.46c0-29.58,30.87-53.4,69.21-53.4Z"/><path id="path4211" class="cls-2" d="M1796.23,4708.1c0,12.67-42.15,22.95-94.13,22.95S1608,4720.77,1608,4708.1s42.15-23,94.13-23S1796.23,4695.43,1796.23,4708.1Z"/><path id="path4321" class="cls-2" d="M2699.9,4725.46c0,12.68-72.93,22.95-162.88,22.95s-162.88-10.27-162.88-22.95,72.93-22.94,162.88-22.94S2699.9,4712.79,2699.9,4725.46Z"/></g><path id="path6367" class="cls-4" d="M788,.28c-24.88-.15-49.49,1-72.2,3C587.42,8.22,457,47.5,348.37,123.52c-97.37,70.23-170,161.67-218.76,259.41C87.88,466.51,59,553.44,40.17,641.34,15.54,756.44,4.58,877.13.3,997.16c-5.54,172.8,71.45,333.85,166,473.09,100.47,148.94,219.48,282.36,312.51,421.41,68.37,102.2,141.38,195.86,211.21,283.26,90.18,112.86,175.23,214.25,250,302.14,85.56,100.56,158.34,183.27,210.13,241.51,2.72,3.06,3.87,4,6.47,7,219.88,348.48,553.88,623.72,736,758.34,25.06,18.53,41.74,29.72,60.34,42.74H1849.49V3635h63.58c11.83,83.14,47.43,375.64-18.32,523.78-69.56,156.73-306.7,351-439.66,452.23-7.54-1.07-36.64-5-36.64-5-38.34,0-69,24.09-69,53.67v47.7c0,1.33-.12,2.68,0,4-2.84.84-4.85,2.14-7.54,3l-2.16-1c-12,0-22.27,5-32.32,13.91-18.53,9-29.1,18.13-29.1,27.83,0,3.15,1.19,5.86,3.23,9-10.63,23.77-17.24,53.26-17.24,86.47v123.24c0,76.52,33.6,132.44,75.43,138.15,0,0,548.81,61.18,824.37,61.62,287.9.46,862.09-61.62,862.09-61.62,42,0,75.43-61.63,75.43-138.15V4850.49a215.79,215.79,0,0,0-15.09-80.51c5.36-4.95,8.63-9.76,8.63-14.9,0-12.4-16.63-24.63-46.34-35.78-5.21-3-10.53-4.08-16.17-5-2.28-.73-4.06-1.27-6.46-2a43.37,43.37,0,0,0,0-5v-47.71c0-29.58-30.63-53.67-69-53.67l-14,2c-147.64-86.82-447.67-278.07-529.12-449.24-69.71-146.54-12.86-440.2,5.39-523.78h69V3526.63H2386.12c23.76-18.13,49.19-37.43,84.06-65.6,165.56-133.77,436.73-373,633.63-646,2.38-2.34,5.16-4.6,7.55-7,22.35-22.1,45.24-44.78,69-68.58,68.18-68.38,142.36-144.65,224.15-231.57,80.88-85.95,169.63-182.67,265.09-295.18,70.91-83.49,147.66-175.54,222-284.25,42.71-62.36,92.23-126.71,145.48-195.8s109.26-143.51,163.79-227.59c45-67.36,88.27-144,118.54-229.59s48.14-180,41-283.26c-9.49-113.35-27.64-234.29-64.66-358.79-26.48-89.06-61.36-175.54-107.76-257.41-55.39-98-132.56-188.23-231.68-255.43C3843.33,46.44,3711.92,11.5,3585.51,8.3c-91.39-6.25-201.59-1.15-305,48.7-32.18,16-62,42-85.13,76.53-18.4,30.46-27.63,61.85-28,92.43a284.37,284.37,0,0,0,42,143.12C3221.69,387,3233,404.25,3245,421.75c58.23,64.72,114.83,126.39,168.11,184.86,42.5,52.88,78.65,103.83,106.68,154.06,27.14,51.44,48.92,96,49.57,135.17,3.84,32.91-12.13,70.85-28,108.33-22.63,50.45-50.59,94.38-75.43,132.18-13.26,17.53-24.65,31.76-35.56,46.72l3.23-9.94c-95.52-53.66-259.85-100.35-468.77-134.18-116.68-149.39-290.38-265.1-495.7-326V571.83h57.11v-64.6h-56c-3.21-7.61-6.29-15.49-9.7-22.86C2387.1,325.5,2269.39,222,2136.11,222c-139.57,0-262.77,113.55-335.14,285.25h-36.64v64.6h61.42V708c-209.31,58.35-386.62,173.13-506.49,323,28.35-4.17,57.52-8.2,87.28-11.92,208.36-26.06,450.15-40.75,709.06-40.75,78.79,0,156.48,1.27,231.68,4-71.19-2.42-144.42-3-218.75-3-590.12,0-1093.55,78.61-1298.52,190.82-4.61-7-8-12.51-12.93-19.88-23.41-40.11-50.46-86.41-71.12-139.14-14.65-39-28.28-80.14-22.63-115.29,3.13-41.37,25.95-85.61,55-136.16C808.88,709.33,848.38,659,892.52,606.61c34.43-40.68,72-81.25,112.07-122.25,11.94-12.22,23.29-24.82,35.56-36.77,3.35-3.27,7.5-6.82,10.77-9.94,2.25-2.55,4.25-4.45,6.47-7,.79-.89,1.36-2.09,2.16-3,13-18.33,26.65-36.88,39.87-55.66,23.58-37.84,40.61-87,42-146.1-.34-31.69-8.91-64.76-28-96.4-24.17-35.93-55.24-62.21-88.37-78.52C945,12.94,862.64.84,788,.34ZM724.45,187.14c87-.43,160.68-4.54,204.75,21.86,9.36,5.49,16.55,9.28,17.24,11.93,1.86,1.18,3.37,5.34,4.31,10.93,3.77,13.17-4.81,33.76-15.09,57.65-7,11.72-14.65,23.17-21.55,34.78-.14.29.14.72,0,1-3.48,3.69-7.46,7.32-10.78,10.93-12.79,13.94-24.67,27.91-36.64,41.74-40.33,46.58-77.42,93.51-111,140.14-43.36,60-81.54,120.95-111,182.87-29.78,59.29-51,127.19-49.57,195.8,4.52,66.65,29.87,117.3,55,157,34.8,57.75,72.45,102.74,105.61,139.14,17.08,16.6,30.77,30.16,45.26,43.74,6.27,66.93,75.48,793.07,195,1156.88,25.36,77.14,59.32,152.24,98.07,224.62-39.31-52.63-77-102.34-121.77-163-69-93.6-145.33-198.15-228.45-316.06-62-88-128.42-182.55-190.74-288.22-41.57-69.86-89.39-139.25-139-210.71s-101.23-144.65-147.63-222.63c-36.05-62.79-70.86-129-94.83-197.78s-37.68-139.87-28-210.71c11.8-106.54,28.74-216.88,60.35-326C226.58,605,255.6,530.8,294.49,463.43c45.32-78.27,101.77-146.94,170.26-192.81,73.53-51.59,167.69-78.5,259.7-83.49Zm2852.45,5c92,3.3,185.95,27,261.86,75.53,71.92,44,133.37,111.19,184.27,187.84,44.42,67.17,80.15,141.2,109.92,218.66,39,101.45,65.49,214.1,84.05,330,12.68,73.22,4.59,149.57-17.24,225.61s-57.61,151.44-98.06,222.63c-87.07,152.15-197.68,292.21-284.49,435.34-63.36,104.48-134.43,201-201.52,290.22-86.66,115.3-169.38,218.89-242.46,308.1-83.63,102.08-154.38,185.1-204.75,244.5-9.93,11.72-15.39,17-23.7,26.83,99.26-148.46,173.77-305.46,195-459.19,48.81-352.65,84.48-920.93,91.6-1038.6,26-20.23,57-46.44,95.9-80.51,34.81-34.38,73.38-76.17,109.92-131.19,26.46-38.44,52.94-87,59.27-151.07,3.87-66.81-14.34-135.07-42-194.8-28-63.35-65.25-125.47-107.76-186.85-47.59-60.81-98-124.74-150.87-189.84-7.75-13.11-15.83-25.57-23.7-38.76-9.61-23.5-16.93-43.41-12.93-54.67,1-4.53,1-8,2.15-8-.31-1.31,6.73-3.8,15.09-8.94,41.68-25.95,114-21.71,200.43-22.86ZM2398,506.17c4.5,0,8.51.83,12.93,1h-34.48C2383.5,506.83,2391.05,506.17,2398,506.17ZM859.14,1214.81c78.76,5.62,657.53,46.83,1090.55,58.64-412.7-10.58-956.3-47.37-1089.48-56.65-.36-.57-.71-1.42-1.07-2Zm1884.74,40.74c-3.07.16-5.54.84-8.62,1-71.53,3.7-143.75,7-214.45,9.93-40.18,1.69-77.74,2.65-116.38,4,109-3.7,224.27-8.88,339.45-14.91Z"/><path id="path6542" class="cls-4" d="M3318.09,5103.61c0,66.49-506.46,120.39-1131.23,120.39s-1131.24-53.9-1131.24-120.39,506.46-120.38,1131.24-120.38S3318.09,5037.13,3318.09,5103.61Z"/></g></g><g id="layer1-2" data-name="layer1"><g id="g6018"><path id="path4283" class="cls-5" d="M2127,903c283.93,2,569.65,29.88,844.75,89.43,217.87,77.33,296.12,291.94,338.39,473.75,72.62,375.72,35.35,764.15-68.9,1132.91-50.81,152.4-106.93,308-236.25,427.81-178,164.94-363.42,326.12-590.52,443.48-95,49.12-263.51,91.42-392.16,62.6-271.71-60.84-446.44-295.08-646.42-462.65-260.4-205.88-323.94-522.63-364.87-809.77-37.13-347.34-32.15-704.81,77.6-1042.78,24-129.32,141.38-200.1,288.38-224.5,247.49-41.1,496.5-90.14,750-90.33Z"/><path id="path4641" class="cls-6" d="M2023.76,1934.57c-.84-.72-1.44.56-1.33,2.84.12,2.52.72,3,1.53,1.31.73-1.57.64-3.43-.2-4.15Z"/><g id="g5982"><path id="path4635" class="cls-7" d="M2926.51,2359.58c-40-6.67-75.73-23.32-105-48.86-41.39-36.15-58.82-72.6-58.59-122.56.34-73.58,53.43-135.8,138-161.72,27-8.28,73.68-10.58,102.18-5,52.84,10.29,91.52,31.37,122.11,66.53,14.94,17.17,22.64,31.13,31.5,57.13,9.37,27.46,9.38,62.91,0,90.54-7.38,21.8-12.58,31.32-28.14,51.48-24.89,32.28-69.63,59.37-114.44,69.3-25.23,5.59-64.72,7-87.66,3.2Z"/><path id="path4633" class="cls-7" d="M1316.53,2346.27C1251.4,2331.42,1201.3,2290,1177,2230.79c-6.42-15.62-9.26-64.24-4.8-82.17,11.35-45.61,38.5-81.94,80.51-107.73,34.79-21.37,72.13-31.58,115.7-31.65,36.39-.06,58.88,4.32,91.45,17.8,23.38,9.68,29.17,13.3,51.1,32s26.19,23.61,37.73,43.81c17.14,30,20.89,43.59,21.07,76.28.11,20.23-1.11,30.68-5.13,43.87-12.36,40.65-42.67,77.5-82.83,100.69-16.13,9.32-24.49,12.75-48.79,20-19.13,5.71-25.65,6.54-57,7.25-31.67.71-38,.22-59.45-4.68Z"/><path id="path5669" class="cls-7" d="M2309.46,2745.4c-50.2.53-100.89,2.6-159.51,6.42-86.25,0-156.83-.58-156.83-1.35l-8.37.34-3.24,2.43L1784,2753l-88.61-.06,8.94,10.14c18.7,15,47.57,30.18,80.15,42.29,103,38.28,228.92,56.95,384.47,56.89,82,0,112-1.74,174.53-9.67,65.51-8.31,96.81-13.94,145.44-26.39,52.39-13.4,117.68-41.37,140-59.94l12.89-13H2318.24l-8-7.1-.79-.75Zm-157,203.43c-22.52,0-42.95.1-61.82.21h123.63c-18.87-.11-39.29-.21-61.81-.21Z"/></g><g id="g5987"><g id="g4270"><path id="path4012" class="cls-8" d="M2136.09,3541c-30.71-28-36.4-40-51-107.92-3.46-16.08-10.3-47.35-15.2-69.49-16.23-73.31-20.92-144.63-12.79-194.51,2.14-13.12,9.06-41.16,15.38-62.32,9.92-33.18,11.31-40.51,10.16-53.29-2.11-23.21-18.24-49.17-50.66-81.52-7.76-7.74-14.12-14.81-14.14-15.7s60.29-1.62,134-1.62,134.06.51,134.06,1.14-8.33,9.7-18.51,20.17c-32.92,33.86-47.25,58.93-47.25,82.68,0,7.41,4.13,26.22,10.27,46.75,5.65,18.9,12.45,46.53,15.12,61.42,9.67,54,4.82,124.89-14,204.58-2,8.34-5.42,23.93-7.67,34.64-14,66.82-20.17,88.15-30.33,105.19-6.91,11.58-29.55,34.55-37.55,38.1-7.18,3.19-7.39,3.1-19.89-8.3Z"/><path id="path3902" class="cls-8" d="M1991.16,2798.82c-90.25-6-125.21-11.48-125.21-19.49,0-2.26,3-6.13,6.66-8.6,6.65-4.48,7.27-4.49,283-4.49s276.32,0,283,4.49c3.67,2.47,6.66,5.8,6.66,7.4,0,6-42.7,14.22-103.7,19.87-58.25,5.4-274.22,5.91-350.33.82Z"/><path id="path3896" class="cls-8" d="M1554.83,2745.74c-52.69-11.7-79.94-24-105.83-47.66-19.91-18.23-26-26.14-51-66.06-11.54-18.46-45.29-71.26-75-117.34s-54-84.92-54-86.29c0-1.58,2.29-2,6.14-1.19,12.36,2.66,54,5.57,80.12,5.61l26.83,0,61.7,93.22c33.94,51.27,65.26,96.82,69.6,101.23,14.87,15.09,25.46,17.82,77.53,20,132.16,5.49,228.37-.41,266.43-16.35,22.51-9.42,101.54-79.61,132.23-117.43,3.14-3.87,7.18-7,9-7s11.68,3.33,22,7.4c69.56,27.5,169.19,26.75,258.74-2,13-4.18,24.38-7.6,25.17-7.6s15.39,15.83,32.46,35.18c38.29,43.42,76,76.69,95.66,84.35,18.77,7.33,29.58,9.33,78.42,14.5,106.51,11.29,210.5,12.24,233.1,2.13,2.3-1,45.49-45.91,96-99.74s93.69-99.5,96-101.5c3.51-3,11.59-3.84,47-4.81,23.48-.65,45.26-1.87,48.39-2.71,4.19-1.12,5.69-.65,5.69,1.79,0,1.82-21.2,31.4-47.12,65.74s-58.06,77.37-71.45,95.61c-46,62.69-94.13,114.18-126.88,135.76-8.54,5.62-23.11,12.23-35.5,16.1l-21,6.56h-416.9l-8-7.09c-4.38-3.91-15-15.84-23.66-26.52-19.58-24.23-84.58-94-104.19-111.91-14.65-13.34-14.68-13.35-31.09-14.25l-16.43-.89-17.58,19.17c-9.67,10.55-31.11,35.12-47.65,54.62-36.89,43.49-54.52,61.7-73.51,75.93l-14.62,11L1784,2753l-197.54-.24-31.61-7Z"/><path id="path3870" class="cls-8" d="M2327.32,2483.94c-2.24-5,3.59-19.68,9.7-24.48,13-10.18,49.38-22.3,67-22.3,15.76,0,20.94,2.93,20.94,11.82,0,13.21-22.52,27.38-54.93,34.57-19.52,4.33-40.85,4.52-42.7.39Z"/><path id="path3866" class="cls-8" d="M1929.94,2475c-32.56-6.2-58.8-22-58.8-35.42,0-16.29,26.86-16.32,67.75-.07,19.27,7.66,21.37,9.13,26.09,18.26,2.82,5.46,4.78,12.09,4.34,14.72-.68,4.06-2.52,4.84-12.18,5.16-6.26.2-18.5-1-27.2-2.65Z"/><path id="path3822" class="cls-8" d="M2749.73,1720.37c-27.21,0-55.14,1.15-74.3,3.45-81.59,9.78-158.32,31.89-210.34,60.62-26.28,14.51-53.84,39.09-63.31,56.42-7.83,14.31-11.76,34.68-8.7,45.12,4,13.57,47.45,45.79,81.74,60.56,45.62,19.65,114,35.2,177.85,40.52,16,1.33,29.53,2.85,30.11,3.32,2.71,2.15,91.21.43,122-2.37,55.61-5,114-18.64,154.21-35.93,37.43-16.07,54.77-20.26,83.16-20.09,43.09.26,99,17.21,150,45.4,10,5.51,16.49,8.37,14.54,6.36-7.08-7.31-45.09-30.17-76.59-46.08s-37.17-20.65-27.51-23.27c12.67-3.44,51.66,5.81,78.33,18.61,7.45,3.57,14,6,14.7,5.48,1.79-1.53-33.64-22.57-49-29.1-7.26-3.08-13.82-7-14.55-8.59s3.51-6.76,10.12-11.91c11.5-9,28.66-29.56,38.73-46.48,8.25-13.85,6.6-13.43-6.88,1.76-24.43,27.54-47.73,42.2-70.74,44.52-32.26,3.26-56.48-11.94-119.83-75.16-66.4-66.27-90.74-79.63-163.86-89.85-16.17-2.26-42.66-3.34-69.88-3.31Zm-13.59,21.31c23.43,0,46.38,1.16,60.86,3.52,68.07,11.08,123.81,40.67,159,84.5,11,13.72,30.31,48.54,32.09,57.91,1.41,7.45.82,8.26-12.25,16.71-32.69,21.12-73,31.65-155,40.46-106.09,11.39-217.34,8-285.82-8.73-33-8.06-65.61-22.44-81.66-36.06-17.34-14.72-14.45-18.81,6.41-9,64,30.11,244.57,42,367.4,24.22,69.29-10,126.47-30.3,126.47-44.78,0-7.68-20.9-26.53-44-39.78-91.58-52.48-211.47-69.39-313.09-44.18-39.55,9.81-104.86,36.79-140.54,58.11-10.09,6-19,10.44-19.77,9.75-5.54-4.75,29.73-36.23,58.34-52,48-26.5,114.91-48,177.61-57,16.54-2.39,40.51-3.57,63.95-3.59Z"/><path id="path3816" class="cls-8" d="M1552.3,1710.63c-65.5.35-125.17,10.44-156.11,28.34-17.7,10.24-44,32.8-79.44,68.2-51,50.95-68.62,64-95.49,70.7-12.64,3.14-15,3.13-29-.21-23.25-5.53-45.06-21.26-67.18-48.44-9.14-11.22-9.29-6.23-.24,7.65,11,16.9,26.46,34.63,38.57,44.38,5.49,4.42,9.21,9,8.3,10.28s-6.43,4.38-12.25,6.9c-12.56,5.45-45.79,24.8-50,29.1-1.61,1.66,7.2-1.33,19.53-6.57s29.66-11.1,38.49-13c33.91-7.51,50.83-.15,25.22,11-20.72,9-51.83,25.87-74.78,40.59-23.27,14.92-28,20.42-7.59,8.73,33.09-18.92,91-39.5,124.18-44.11,37.56-5.22,60.36-1.51,105.68,17,54,22.09,116.54,35.48,182,39,46.57,2.53,51.57,2.58,93.75.14,64.86-3.77,132.19-15.18,177.06-30,51-16.9,84.71-36,108.61-61.57,8.83-9.43,9.88-11.7,9.88-22.87,0-64.43-102-123.45-254.84-147.48a657.11,657.11,0,0,0-104.42-7.71Zm16.52,22.19c38.76.06,50.25.92,77.54,5.68,82.38,14.35,160.16,45.54,201.17,80.64,13.59,11.63,19.86,20.5,14.47,20.5-.81,0-12.54-5.86-26.09-13-29.13-15.32-85.34-38.52-110.26-45.53-36.88-10.37-56.92-13.22-101.18-14.41-49.72-1.34-85.68,2.73-129.24,14.61-62.3,17-124.19,49.75-138.8,73.48-7.38,12,5.54,21.54,45.68,33.83,47.75,14.61,91.48,21.4,158,24.48,102.52,4.77,221.69-7,277.53-27.33,11.56-4.21,21.8-7,22.77-6.15,2.58,2.24-22.47,21.34-38,28.95-29.19,14.29-84.21,26.48-137.22,30.38-67.24,4.94-129.19,4.37-184.65-1.69-62.37-6.82-80.71-9.35-102.13-14.28-40.52-9.33-83.78-30.61-83.78-41.2,0-7.94,18.79-42.74,32.48-60.08,26.21-33.17,69.7-61.92,113.91-75.29,35.76-10.83,58.09-13.68,107.81-13.6Z"/><path id="path3808" class="cls-8" d="M1033.51,1917c-17.56-10-21.59-28.61-9.39-43.27,19.53-23.48,62.79-11,62.76,18.13,0,24.31-30.07,38.46-53.36,25.14Z"/><path id="path3806" class="cls-8" d="M3253.34,1919.82c-6.88-2.38-18.35-14.14-20.31-20.81-4.43-15.11,9.65-33.81,27.64-36.69,12.75-2,20.65.06,31.19,8.32,22.72,17.82,7.25,51.57-23.43,51.14-5.4-.07-12.19-1-15.09-2Z"/><path id="path3776" class="cls-8" d="M1910.21,1610.13c-17.65-3-34.92-10-58.82-23.65-118-67.55-261.37-122.63-366.21-140.69-139.3-24-240.49-5.2-318.56,59.2q-35,28.88,5.85-24.71c18.94-24.81,63.68-63.15,92-78.88,38.64-21.44,77.84-34.34,125.91-41.45,32.95-4.87,105.32-3.24,148,3.32,94.28,14.52,191.39,49.2,279.83,99.92,48.17,27.63,102,68,130.56,97.85,13.16,13.76,14.55,16.2,14.55,25.45,0,20.42-20,29.32-53.11,23.64Z"/><path id="path3774" class="cls-8" d="M2345.28,1608.42c-11.19-4.5-16.39-11.8-16.39-23,0-10.09,15.72-27.36,52.57-57.75,97-80,234.21-141.5,363.53-162.89,61.51-10.18,137-10.45,182.12-.65,77.68,16.86,141.43,53.85,186.95,108.44,14.32,17.18,30.39,42.17,28.28,44-.9.77-9.29-5-18.64-12.73-29.38-24.43-50.51-36.34-86.43-48.74-57.2-19.74-115.54-24.09-195.43-14.57-111.84,13.32-256.48,65.6-394.06,142.43-35.64,19.91-53.71,26.6-76.57,28.37-12.34,1-18,.34-25.92-2.86Z"/></g><path id="path5573" class="cls-9" d="M2136,3541c-30.72-28-36.4-40-51-107.93-3.46-16.07-10.3-47.34-15.2-69.49-16.23-73.31-20.91-144.62-12.79-194.51,2.14-13.11,9.06-41.15,15.39-62.31,9.91-33.19,11.31-40.52,10.15-53.3-2.1-23.21-18.23-49.16-50.66-81.52-7.76-7.74-14.12-14.8-14.14-15.69s60.29-1.63,134-1.63,134.06.51,134.06,1.14-8.33,9.71-18.51,20.18c-32.93,33.86-47.26,58.93-47.26,82.68,0,7.41,4.13,26.21,10.27,46.75,5.66,18.89,12.46,46.53,15.12,61.41,9.67,54,4.82,124.89-14,204.59-2,8.33-5.42,23.92-7.66,34.64-14,66.82-20.17,88.15-30.34,105.19-6.91,11.58-29.54,34.55-37.55,38.1-7.17,3.18-7.38,3.09-19.89-8.3Z"/><path id="path5575" class="cls-5" d="M1991.16,2798.81c-90.25-6-125.21-11.48-125.21-19.49,0-2.26,3-6.13,6.66-8.6,6.65-4.48,7.27-4.49,283-4.49s276.32,0,283,4.49c3.66,2.47,6.66,5.8,6.66,7.4,0,6-42.71,14.22-103.7,19.87-58.25,5.4-274.22,5.9-350.33.82Z"/><path id="path5577" class="cls-9" d="M1554.83,2745.74c-52.69-11.7-79.94-24-105.83-47.66-19.91-18.22-26-26.14-51-66.06-11.54-18.46-45.29-71.26-75-117.34s-54-84.91-54-86.29c0-1.57,2.29-2,6.13-1.19,12.37,2.66,54,5.57,80.13,5.61l26.83,0,61.7,93.21c33.94,51.27,65.26,96.82,69.6,101.23,14.87,15.09,25.46,17.82,77.53,20,132.16,5.48,228.37-.42,266.43-16.36,22.51-9.42,101.53-79.61,132.23-117.43,3.14-3.87,7.18-7,9-7s11.68,3.33,22,7.4c69.55,27.5,169.19,26.75,258.74-1.95,13-4.19,24.37-7.61,25.17-7.61s15.39,15.83,32.46,35.18c38.29,43.42,76,76.69,95.66,84.36,18.77,7.32,29.58,9.32,78.42,14.49,106.51,11.29,210.49,12.24,233.1,2.13,2.3-1,45.49-45.91,96-99.74s93.69-99.5,96-101.5c3.51-3,11.59-3.83,47-4.81,23.48-.65,45.26-1.87,48.39-2.7,4.19-1.12,5.69-.65,5.69,1.78,0,1.82-21.2,31.41-47.12,65.75s-58.06,77.36-71.45,95.61c-46,62.69-94.13,114.18-126.88,135.75-8.54,5.62-23.11,12.23-35.5,16.1l-21,6.57h-416.9l-8-7.1c-4.39-3.91-15-15.84-23.66-26.52-19.58-24.23-84.58-94-104.19-111.91-14.65-13.34-14.68-13.35-31.09-14.24l-16.43-.9-17.58,19.18c-9.67,10.54-31.11,35.12-47.65,54.61-36.89,43.49-54.53,61.71-73.51,75.93l-14.62,11L1784,2753l-197.54-.24-31.62-7Z"/><path id="path5579" class="cls-2" d="M2327.34,2483.94c-2.23-5,3.59-19.68,9.71-24.48,13-10.18,49.38-22.3,67-22.3,15.75,0,20.94,2.93,20.94,11.82,0,13.21-22.52,27.38-54.93,34.57-19.53,4.33-40.85,4.52-42.71.39Z"/><path id="path5581" class="cls-2" d="M1929.82,2475c-32.56-6.2-58.8-22-58.8-35.42,0-16.29,26.86-16.32,67.75-.07,19.27,7.66,21.37,9.13,26.09,18.26,2.82,5.46,4.77,12.09,4.33,14.72-.67,4.06-2.52,4.84-12.17,5.16-6.26.2-18.5-1-27.2-2.65Z"/><path id="path5583" class="cls-10" d="M2749.71,1720.37c-27.22,0-55.15,1.15-74.31,3.45-81.58,9.78-158.31,31.89-210.33,60.62-26.29,14.51-53.84,39.09-63.32,56.42-7.82,14.31-11.75,34.68-8.69,45.12,4,13.57,47.45,45.79,81.73,60.56,45.63,19.65,114.05,35.2,177.85,40.52,16,1.33,29.54,2.85,30.12,3.32,2.71,2.15,91.2.43,122-2.37,55.61-5,114-18.64,154.22-35.93,37.43-16.07,54.76-20.26,83.15-20.09,43.09.26,99,17.21,149.95,45.4,10,5.51,16.49,8.37,14.54,6.36-7.08-7.31-45.09-30.17-76.59-46.08s-37.16-20.65-27.51-23.27c12.67-3.44,51.67,5.81,78.34,18.61,7.44,3.57,14,6,14.7,5.48,1.78-1.53-33.64-22.57-49-29.1-7.26-3.08-13.81-7-14.54-8.59s3.5-6.76,10.11-11.91c11.51-9,28.66-29.56,38.74-46.48,8.25-13.85,6.6-13.43-6.88,1.76-24.43,27.54-47.73,42.2-70.75,44.52-32.25,3.26-56.48-11.94-119.83-75.16-66.39-66.27-90.74-79.63-163.86-89.85-16.16-2.26-42.66-3.34-69.87-3.31Zm-13.6,21.31c23.44,0,46.39,1.16,60.87,3.52,68.06,11.08,123.8,40.67,159,84.5,11,13.72,30.32,48.54,32.1,57.91,1.41,7.45.82,8.26-12.26,16.71-32.69,21.12-73,31.65-155,40.46-106.09,11.39-217.34,8-285.83-8.73-33-8.06-65.61-22.44-81.65-36.06-17.34-14.72-14.45-18.81,6.4-9,64,30.11,244.57,42,367.4,24.22,69.3-10,126.47-30.3,126.47-44.78,0-7.68-20.89-26.53-44-39.78-91.58-52.48-211.47-69.39-313.1-44.18-39.55,9.81-104.85,36.79-140.54,58.11-10.08,6-18.95,10.44-19.76,9.75-5.54-4.75,29.72-36.23,58.33-52,48-26.5,114.92-48,177.62-57,16.54-2.39,40.51-3.57,63.94-3.59Z"/><path id="path5585" class="cls-10" d="M1552.28,1710.63c-65.5.35-125.17,10.44-156.12,28.34-17.7,10.24-44,32.8-79.44,68.2-51,50.95-68.62,64-95.48,70.7-12.64,3.14-15,3.13-29-.21-23.26-5.53-45.07-21.26-67.19-48.44-9.13-11.22-9.29-6.23-.24,7.65,11,16.9,26.47,34.63,38.58,44.38,5.48,4.42,9.2,9,8.3,10.28s-6.44,4.38-12.26,6.9c-12.55,5.44-45.79,24.8-50,29.1-1.61,1.66,7.19-1.33,19.52-6.57s29.67-11.1,38.5-13c33.91-7.51,50.82-.15,25.21,11-20.71,9-51.83,25.87-74.78,40.59-23.27,14.92-28,20.42-7.58,8.73,33.08-18.92,90.94-39.5,124.18-44.11,37.56-5.22,60.35-1.51,105.68,17,54,22.09,116.53,35.48,182,39,46.56,2.53,51.56,2.58,93.74.14,64.87-3.77,132.19-15.18,177.06-30,51-16.9,84.72-36,108.61-61.57,8.83-9.43,9.88-11.7,9.88-22.87,0-64.43-102-123.45-254.84-147.48a657,657,0,0,0-104.41-7.71Zm16.52,22.19c38.75.06,50.25.92,77.54,5.68,82.38,14.35,160.16,45.54,201.17,80.64,13.59,11.63,19.85,20.5,14.46,20.5-.8,0-12.53-5.86-26.08-13-29.14-15.32-85.35-38.52-110.27-45.53-36.87-10.37-56.91-13.22-101.18-14.41-49.71-1.34-85.67,2.73-129.24,14.61-62.3,17-124.18,49.75-138.8,73.48-7.38,12,5.55,21.54,45.69,33.83,47.74,14.61,91.47,21.4,158,24.48,102.51,4.77,221.68-7,277.53-27.33,11.55-4.21,21.79-7,22.76-6.15,2.58,2.24-22.47,21.34-38,28.95-29.18,14.29-84.21,26.48-137.22,30.38-67.23,4.94-129.18,4.37-184.65-1.69-62.37-6.82-80.71-9.35-102.12-14.28-40.53-9.33-83.79-30.61-83.79-41.2,0-7.94,18.79-42.74,32.49-60.08,26.2-33.17,69.7-61.92,113.9-75.29,35.76-10.83,58.09-13.68,107.82-13.6Z"/><path id="path5587" class="cls-2" d="M1033.52,1917c-17.57-10-21.6-28.61-9.4-43.27,19.53-23.48,62.79-11,62.76,18.13,0,24.31-30.07,38.46-53.36,25.14Z"/><path id="path5589" class="cls-2" d="M3253.09,1919.82c-6.88-2.38-18.35-14.14-20.31-20.81-4.43-15.11,9.65-33.81,27.63-36.69,12.76-2,20.66.06,31.2,8.32,22.72,17.82,7.25,51.57-23.44,51.14-5.4-.07-12.19-1-15.08-2Z"/><path id="path5591" class="cls-8" d="M1910.21,1610.13c-17.65-3-34.92-10-58.82-23.65-118-67.55-261.37-122.63-366.21-140.69-139.3-24-240.49-5.2-318.56,59.2q-35,28.88,5.85-24.71c18.94-24.81,63.68-63.15,92-78.88,38.64-21.44,77.84-34.34,125.91-41.45,32.95-4.87,105.32-3.24,148,3.32,94.28,14.52,191.39,49.2,279.83,99.92,48.17,27.63,102,68,130.56,97.85,13.16,13.76,14.56,16.2,14.56,25.45,0,20.42-20,29.32-53.12,23.64Z"/></g><g id="g6011"><path id="path5274" class="cls-11" d="M2825.46,1282.19c-32.06,0-69.44,2.56-94.06,7-39.92,7.25-88.65,20.79-126.39,35.12-30.13,11.43-80.28,33.58-97.47,43-33.54,18.44-53.23,30.07-52.24,30.92.63.54,9.29-1.54,19.2-4.6,40.57-12.52,130-28.81,196.82-35.86,11.48-1.21,29.69-3.11,40.48-4.26,35.29-3.76,123.86-5.29,136.51,3.45,29.85.2,57.63,2.53,78.72,7.11,77.68,16.87,141.43,53.79,186.94,108.38,14.33,17.18,30.42,42.23,28.3,44-.9.77-9.3-5-18.65-12.79-29.39-24.42-50.48-36.31-86.4-48.71-57.2-19.74-115.58-24.06-195.47-14.54-111.78,13.33-256.41,65.59-394,142.41-11.56,6.45-21.25,11.46-29.87,15.42-2.91,6.23-11.69,22.36-17.79,34-7.58,14.52-17.19,34.42-21.34,44.25s-10.45,24.5-14,32.61c-6.38,14.6-31.7,93.16-31.7,98.37,0,5.48,4.16,1.88,21.9-18.61,43.94-50.75,113.59-114.64,171.05-157,94.67-69.72,200.64-116.28,310.41-136.45,27.31-5,81-10,107.42-10,65.74.07,164.26,16.43,191,31.73,16.49,9.45,16.64,6.18,1.1-22.39-36.15-66.49-53.63-92.2-82-120.76-50.6-51-116.66-82.52-189.7-90.32a382.53,382.53,0,0,0-38.73-1.63Z"/><path id="path5276" class="cls-11" d="M1475.38,1282.25c-28.86.23-59.07,2.42-77.46,6C1323,1303,1265.87,1337.62,1213.74,1400c-9,10.71-20.73,27.27-26.24,36.8-25.35,43.87-46.35,83.66-44.82,85,.93.8,4.21,0,7.27-1.62,20.63-11.22,65.3-22.45,116.91-29.5,49.22-6.71,139.87-4.41,189.71,4.87,121.1,22.57,238.68,78.62,345,164.47,46,37.1,110.39,99.69,144.18,140,7.68,9.16,12.88,12.72,12.88,8.93,0-3-20.43-68-26.08-83.08-10-26.66-31.91-75.39-44-98.1-4-7.56-11.5-21.14-16.28-30.31-6.47-3.07-13.29-6.62-20.87-11-118-67.55-261.37-122.65-366.21-140.72-139.3-24-240.49-5.19-318.56,59.2q-35,28.89,5.85-24.69c18.94-24.81,63.67-63.17,92-78.89,38.65-21.44,77.85-34.37,125.92-41.47,10.17-1.5,24.1-2.4,39.76-2.71,7.09-2.71,17.74-6.42,23.87-8,6-1.58,9.15-2.16,18.49-2.16,20,0,101,5.43,125.92,8.45l55.41,6.77c48.49,5.93,121.78,19.83,154.3,29.29,13.91,4,26.26,7.38,27.5,7.38s-2.74-3.13-8.85-7c-39.1-25-125.26-63.9-178-80.37-41.73-13-92.84-24.19-125.84-27.47a467.48,467.48,0,0,0-47.58-1.76Z"/><path id="path5296" class="cls-11" d="M1714.18,2290.91c-2.17,0-8.13,2.8-13.2,6.23-27.77,18.79-95.36,50.73-138.17,65.28-57.94,19.7-92.46,28.3-144.17,35.86-46.59,6.81-81.5,8.37-120.15,5.48-70.67-5.29-121.68-24.17-163.78-60.62-14.49-12.54-20.87-16.86-20.87-14.07,0,4.61,17.9,59.65,31.7,97.49,14.62,40.1,29.62,72.94,47.9,104.66,9.26,16.07,20.48,35.56,24.9,43.3,9.18,16.09,41.91,67.87,56.12,88.76,34,50,102.77,136.46,162.75,204.58,57.58,65.39,156,166.62,194.69,200.26l21.19,18.4-19.69-24.89c-10.83-13.7-24.4-30.75-30.11-37.89-39.72-49.67-97.63-129.51-148.45-204.59-28.61-42.26-32.41-48.53-32.41-53,0-5.77,4-3.81,28.3,13.46,48.36,34.35,85.94,55.71,132,75.1,24.59,10.35,79.47,28.32,81.42,26.65.38-.32-9.2-4.47-21.27-9.2-48.16-18.87-107.74-50.72-145.83-77.93-33.47-24-82.51-64.48-106-87.57-20.74-20.38-24.27-25.39-56.84-80.78-19.09-32.5-46-80-59.67-105.61s-31.55-58.9-39.69-74c-20.34-37.81-20.13-39.05,6.88-31.06l17.55,5.14.08.07c9.89,1.59,20.41,3.19,33,4.8,29.21,3.75,41.26,4.09,82.28,2.85,6.35-.2,11.34-.35,16.37-.55a31.22,31.22,0,0,1,4.34-.33c13.88,0,80.11-8.3,111.85-13.94,131.54-23.37,231.45-65.76,231.45-98.23,0-6.05-2.13-9.27-10.28-15.9-5.62-4.58-12-8.32-14.15-8.32Zm884.52,3.79a14.16,14.16,0,0,0-4.9,1.49c-20.29,9-24.82,25.11-11.23,39.78,10,10.77,44.92,30.34,73.75,41.34,60.77,23.18,152.5,42.82,241.17,51.82h.24c11.42.9,23.73,1.63,38.57,2.23,29.5,1.2,41.54.53,82.21-4.26,16.59-1.95,28-3.4,37.3-4.94v.21c4.54-1.16,9.56-2.41,16.45-4.27,11.9-3.2,17.92-3.94,19.76-2.36,2.52,2.15-1,9.36-44.35,90.58-16.87,31.6-19.56,36.41-53.43,95.26-30.77,53.48-35.71,60.58-57.15,83.35-26.38,28-82.94,77.1-117.7,102.16-41.28,29.76-83.75,54.11-133.5,76.38-15.31,6.85-28.29,12.81-28.85,13.26s8.54-2.19,20.23-5.82c63.31-19.63,132.16-56.77,193.9-104.59,19.8-15.34,30.39-22,32.33-20.37,1.71,1.47-5.89,19.25-10,23.28-1.87,1.84-11.9,16.53-22.29,32.61s-24.95,38-32.33,48.71-18.73,27.27-25.22,36.8-18.71,26.58-27.19,37.89c-52.4,69.92-73.18,96.85-96.43,125.16-14.37,17.48-27.22,33.46-28.54,35.52-7.72,12.06,20.23-12.73,66.08-58.73,71-71.22,118.13-121.64,170.26-182.06,13.88-16.07,28.16-32.64,31.78-36.8,15.32-17.63,61.79-77.37,87.19-112.1,27.49-37.6,65.64-96.48,83.07-128.21,8.18-14.88,19.9-35.34,26-45.46,16.78-27.82,37.51-78.64,60.63-148.3,16.07-48.46,16-49.05-8.07-28.41-33.55,28.82-64,43.25-115.72,54.8-21.71,4.84-32.11,5.78-73.35,6.63-41,.84-53.05.31-82.21-3.72-45.47-6.29-68.17-11-107.5-22.47-72.3-21-134.55-47.49-184.41-78.54-9.59-6-13.25-8-16.6-7.85Z"/></g><path id="path5760" class="cls-9" d="M2152.56,876.53c-194.6,5.9-379.77,20.77-570.23,55.68-104.36,19.13-189.53,36.1-292.08,57.64-126.88,26.65-195.14,127.06-231.84,216.56a2107.81,2107.81,0,0,0-78.17,356.67c-3,95.92-24.25,196.39-17.47,296.6-3.2,209.26,10.76,415.92,53.44,621.53,19.14,61.49,32.69,135.18,57.78,199.64,28.87,76,67.28,166.61,120.78,239.29,46.45,63.11,121,126.09,182.91,183.48,43.64,40.44,118.78,107.81,152.16,138.42,123,112.82,256.2,234.25,422.56,292.74,98.38,34.59,248.33,28.17,365.66-6.29,106.51-31.28,198.24-91.56,289-150,79.4-51.11,188.93-138.38,267.09-204.31,218.65-167.25,351.56-354.51,415.3-654.07,44.49-209.06,87.29-425.65,87.11-603.67-.19-187.77-2.65-380-68-567.15-24.22-69.38-56.81-142.17-96.91-207.69-71.58-110.7-204.27-190-352.85-200.37-110.66-14.29-202.53-29.07-317.14-42.06-129.41-12.06-260-17.21-389-22.4ZM2127,903c283.93,2,569.65,29.89,844.75,89.44,217.87,77.33,296.15,292,338.39,473.77,72.62,375.73,35.31,764.12-68.93,1132.87-50.82,152.4-106.87,308-236.18,427.83-178,165-363.48,326.1-590.55,443.46-95,49.12-263.51,91.41-392.14,62.58-271.71-60.83-446.44-295.08-646.39-462.64-260.41-205.89-324-522.66-364.87-809.77-37.11-347.34-32.12-704.77,77.63-1042.76,24-129.32,141.35-200.13,288.35-224.55,247.48-41.09,496.48-90.12,750-90.31Zm160.54,866.17c-1.22.07-2.61,2.95-4.27,8.39-13,42.54-20.93,217.62-15.65,344.76,4.11,99.08,7.71,136.45,19.37,198.7,14.53,77.67,5.69,103.83-40,118.33-36.26,11.5-65.31,17.22-91.69,18-23.32.68-28.18,0-61.42-8.06-19.83-4.81-41.08-10.76-47.27-13.26-14.36-5.77-30.58-20.78-34.07-31.52-4.58-14.12-3.15-48.75,3.48-83.69,11-58,15-96.83,19-184.42,4.56-99.92,2-217.41-6.4-298.76-5.47-52.63-9.89-72.25-15.34-67.59-1,.87-2.74,22.76-3.79,48.64-3.77,92.94-21.13,174.73-51.85,244.1-22.29,50.33-61.47,107.82-108.45,159.12-11.13,12.15-27.31,29.79-35.89,39.17-54.58,59.68-61.43,98.21-27.35,153,12.39,19.93,28.09,39.44,31.78,39.44,3.22,0,3.24-.12-5.14-16.1-32.32-61.66-24.08-98.75,33-148.5,35.5-30.93,103.47-85.38,108.61-87,13.15-4.16,15.31,10.2,8.61,56.76-12.37,86-11.67,124,3,159.4,8.15,19.64,22.48,33.78,49.71,49.18,31.51,17.82,59.58,27.1,97.94,32.41,15.61,2.16,61.16,1.18,78.41-1.69,29.56-4.92,44.61-9.28,74.62-21.72,44.35-18.38,61.28-34,75-69.28,5.47-14,5.87-18.5,5.69-60.61-.14-33.87-1.59-54.3-5.69-80.11-6.64-41.85-7-57.93-1.5-62.64,2.19-1.88,5-3.39,6.33-3.39,3.81,0,55.32,40.9,102,81,46.15,39.66,60.37,61.44,60.39,92.42,0,21-3.93,35-16.44,58.93-16.26,31.1-6.68,26.75,18.1-8.26,24-33.93,32.13-64.74,24.43-92.82-7.19-26.18-15.41-37.32-82.29-110.95-47.47-52.27-80.44-100-103.86-150.33-32.19-69.16-50.82-151.66-54.46-241.26-1.7-41.68-3.6-60-6.72-59.8Z"/></g></g></g></g></svg>